<svg width="44" height="44" viewBox="0 0 44 44" fill="none" xmlns="http://www.w3.org/2000/svg">
<path d="M29.3333 7.33335C31.0382 7.33335 31.8907 7.33335 32.5901 7.52076C34.4881 8.02933 35.9706 9.51184 36.4792 11.4098C36.6666 12.1093 36.6666 12.9617 36.6666 14.6667V31.5334C36.6666 34.6136 36.6666 36.1538 36.0671 37.3303C35.5398 38.3652 34.6984 39.2066 33.6635 39.7339C32.487 40.3334 30.9469 40.3334 27.8666 40.3334H16.1333C13.053 40.3334 11.5128 40.3334 10.3363 39.7339C9.30141 39.2066 8.46002 38.3652 7.93272 37.3303C7.33325 36.1538 7.33325 34.6136 7.33325 31.5334V14.6667C7.33325 12.9617 7.33325 12.1093 7.52066 11.4098C8.02923 9.51184 9.51174 8.02933 11.4097 7.52076C12.1092 7.33335 12.9616 7.33335 14.6666 7.33335M16.4999 27.5L20.1666 31.1667L28.4166 22.9167M17.5999 11H26.3999C27.4267 11 27.9401 11 28.3322 10.8002C28.6772 10.6244 28.9577 10.344 29.1334 9.999C29.3333 9.60683 29.3333 9.09345 29.3333 8.06669V6.60002C29.3333 5.57326 29.3333 5.05988 29.1334 4.6677C28.9577 4.32274 28.6772 4.04228 28.3322 3.86651C27.9401 3.66669 27.4267 3.66669 26.3999 3.66669H17.5999C16.5732 3.66669 16.0598 3.66669 15.6676 3.86651C15.3226 4.04228 15.0422 4.32274 14.8664 4.6677C14.6666 5.05988 14.6666 5.57326 14.6666 6.60002V8.06669C14.6666 9.09345 14.6666 9.60683 14.8664 9.999C15.0422 10.344 15.3226 10.6244 15.6676 10.8002C16.0598 11 16.5732 11 17.5999 11Z" stroke="white" stroke-width="2" stroke-linecap="round" stroke-linejoin="round"/>
</svg>
