<svg width="30" height="30" viewBox="0 0 30 30" fill="none" xmlns="http://www.w3.org/2000/svg">
<path d="M12.5 11.25C12.5 11.9404 11.9404 12.5 11.25 12.5C10.5596 12.5 10 11.9404 10 11.25C10 10.5596 10.5596 10 11.25 10C11.9404 10 12.5 10.5596 12.5 11.25Z" fill="#FF9549"/>
<path d="M20 18.75C20 19.4404 19.4404 20 18.75 20C18.0596 20 17.5 19.4404 17.5 18.75C17.5 18.0596 18.0596 17.5 18.75 17.5C19.4404 17.5 20 18.0596 20 18.75Z" fill="#FF9549"/>
<path d="M12.5677 3.32282C13.9693 2.1284 16.0307 2.1284 17.4323 3.32282L18.2856 4.04997C18.8862 4.56181 19.633 4.87114 20.4196 4.93391L21.5371 5.02309C23.3728 5.16957 24.8305 6.62724 24.977 8.4629L25.0661 9.58042C25.1289 10.367 25.4382 11.1138 25.9501 11.7144L26.6772 12.5677C27.8716 13.9693 27.8716 16.0307 26.6772 17.4323L25.9501 18.2856C25.4382 18.8862 25.1289 19.633 25.0661 20.4196L24.977 21.5371C24.8305 23.3728 23.3728 24.8305 21.5371 24.977L20.4196 25.0661C19.633 25.1289 18.8862 25.4382 18.2856 25.9501L17.4323 26.6772C16.0307 27.8716 13.9693 27.8716 12.5677 26.6772L11.7144 25.9501C11.1138 25.4382 10.367 25.1289 9.58042 25.0661L8.4629 24.977C6.62724 24.8305 5.16957 23.3728 5.02309 21.5371L4.93391 20.4196C4.87113 19.633 4.56181 18.8862 4.04997 18.2856L3.32282 17.4323C2.1284 16.0307 2.1284 13.9693 3.32282 12.5677L4.04997 11.7144C4.56181 11.1138 4.87113 10.367 4.93391 9.58043L5.02309 8.4629C5.16957 6.62724 6.62724 5.16957 8.4629 5.02309L9.58042 4.93391C10.367 4.87114 11.1138 4.56181 11.7144 4.04997L12.5677 3.32282Z" stroke="#FF9549" stroke-width="1.5"/>
<path d="M11.25 18.75L18.75 11.25" stroke="#FF9549" stroke-width="1.5" stroke-linecap="round"/>
</svg>
