<svg width="27" height="27" viewBox="0 0 27 27" fill="none" xmlns="http://www.w3.org/2000/svg">
<path d="M9 9H9.0125M1.5 5.5L1.5 11.0931C1.5 11.7046 1.5 12.0104 1.56908 12.2981C1.63032 12.5532 1.73133 12.797 1.8684 13.0207C2.023 13.273 2.23919 13.4892 2.67157 13.9216L12.2574 23.5074C13.7424 24.9924 14.485 25.7349 15.3412 26.0132C16.0943 26.2579 16.9056 26.2579 17.6588 26.0132C18.515 25.7349 19.2576 24.9924 20.7426 23.5074L23.5074 20.7426C24.9924 19.2576 25.7349 18.515 26.0132 17.6588C26.2579 16.9056 26.2579 16.0943 26.0132 15.3412C25.7349 14.485 24.9924 13.7424 23.5074 12.2574L13.9216 2.67157C13.4892 2.23919 13.273 2.023 13.0207 1.8684C12.797 1.73133 12.5532 1.63032 12.2981 1.56908C12.0104 1.5 11.7046 1.5 11.0931 1.5L5.5 1.5C4.09987 1.5 3.3998 1.5 2.86502 1.77248C2.39462 2.01217 2.01217 2.39462 1.77248 2.86502C1.5 3.3998 1.5 4.09987 1.5 5.5ZM9.625 9C9.625 9.34518 9.34518 9.625 9 9.625C8.65482 9.625 8.375 9.34518 8.375 9C8.375 8.65482 8.65482 8.375 9 8.375C9.34518 8.375 9.625 8.65482 9.625 9Z" stroke="#FF9549" stroke-width="1.5" stroke-linecap="round" stroke-linejoin="round"/>
</svg>
