<svg width="22" height="28" viewBox="0 0 22 28" fill="none" xmlns="http://www.w3.org/2000/svg">
<path d="M16 4C17.1625 4 17.7437 4 18.2206 4.12778C19.5147 4.47453 20.5255 5.48533 20.8722 6.77943C21 7.2563 21 7.83754 21 9V20.5C21 22.6002 21 23.6503 20.5913 24.4525C20.2317 25.1581 19.6581 25.7317 18.9525 26.0913C18.1503 26.5 17.1002 26.5 15 26.5H7C4.8998 26.5 3.8497 26.5 3.04754 26.0913C2.34193 25.7317 1.76825 25.1581 1.40873 24.4525C1 23.6503 1 22.6002 1 20.5V9C1 7.83754 1 7.2563 1.12778 6.77943C1.47453 5.48533 2.48533 4.47453 3.77943 4.12778C4.2563 4 4.83754 4 6 4M7.25 17.75L9.75 20.25L15.375 14.625M8 6.5H14C14.7001 6.5 15.0501 6.5 15.3175 6.36376C15.5527 6.24392 15.7439 6.05269 15.8638 5.81749C16 5.5501 16 5.20007 16 4.5V3.5C16 2.79993 16 2.4499 15.8638 2.18251C15.7439 1.94731 15.5527 1.75608 15.3175 1.63624C15.0501 1.5 14.7001 1.5 14 1.5H8C7.29993 1.5 6.9499 1.5 6.68251 1.63624C6.44731 1.75608 6.25608 1.94731 6.13624 2.18251C6 2.4499 6 2.79993 6 3.5V4.5C6 5.20007 6 5.5501 6.13624 5.81749C6.25608 6.05269 6.44731 6.24392 6.68251 6.36376C6.9499 6.5 7.29993 6.5 8 6.5Z" stroke="#FF9549" stroke-width="1.5" stroke-linecap="round" stroke-linejoin="round"/>
</svg>
